<svg width="40" height="40" viewBox="0 0 40 40" fill="none" xmlns="http://www.w3.org/2000/svg">
<path d="M20 3.33594C12.8508 3.33594 6.77082 7.84594 4.40332 14.1693H35.5958C33.2292 7.84594 27.1492 3.33594 20 3.33594Z" fill="#ECEFF1"/>
<path d="M36.6673 19.9974C36.6673 17.9416 36.2773 15.9824 35.5973 14.1641H4.40398C3.72398 15.9824 3.33398 17.9416 3.33398 19.9974C3.33398 22.0532 3.72398 24.0124 4.40398 25.8307H35.5965C36.2773 24.0124 36.6673 22.0532 36.6673 19.9974Z" fill="#1976D2"/>
<path d="M35.5967 25.8359H4.40332C6.77082 32.1593 12.8508 36.6693 20 36.6693C27.1492 36.6693 33.2292 32.1593 35.5967 25.8359Z" fill="#FF3D00"/>
<path d="M12.5712 25.9231C10.5512 24.9806 7.54699 23.9523 7.50115 20.1506C7.45532 16.3489 7.43115 14.3181 7.43115 14.3181L17.4303 14.1973C17.4303 14.1973 17.4553 16.2673 17.5003 20.0298C17.5462 23.8314 14.5678 24.9323 12.5712 25.9231Z" fill="#FF3D00"/>
<path d="M6.5874 13.4963C6.5874 13.4963 6.61824 16.0188 6.66824 20.1621C6.71824 24.3088 10.2091 25.7321 12.5816 26.758C14.9282 25.6746 18.3832 24.168 18.3332 20.0213C18.2832 15.878 18.2524 13.3555 18.2524 13.3555L6.5874 13.4963ZM17.4999 20.0313C17.5457 23.833 14.5674 24.9338 12.5707 25.9246C10.5507 24.9821 7.54657 23.9538 7.50074 20.1521C7.4549 16.3505 7.43074 14.3196 7.43074 14.3196L17.4299 14.1988C17.4299 14.1988 17.4549 16.2688 17.4999 20.0313Z" fill="#ECEFF1"/>
<path d="M12.9775 19.6587C13.5867 19.6612 14.7717 19.6695 15.825 19.3054C15.825 19.3054 15.8033 19.6829 15.8092 20.1229C15.815 20.5629 15.845 20.9395 15.845 20.9395C14.8708 20.6287 13.6733 20.637 12.99 20.652L13.0183 23.002L12.0583 23.0137L12.03 20.667C11.3433 20.6654 10.145 20.6862 9.17918 21.0237C9.17918 21.0237 9.20085 20.6462 9.19501 20.2029C9.19001 19.7637 9.15918 19.3862 9.15918 19.3862C10.2217 19.7279 11.4092 19.6912 12.0175 19.6704L12 18.1962C11.4433 18.1995 10.8825 18.1287 9.98168 18.442C9.98168 18.442 9.97751 18.0645 9.97168 17.6254C9.96668 17.1829 9.96168 16.8054 9.96168 16.8054C10.8667 17.097 11.4317 17.2204 11.985 17.2104C11.9442 16.2737 11.6567 15.1012 11.6567 15.1012C11.6567 15.1012 12.22 15.137 12.4417 15.1337C12.6633 15.1312 13.2258 15.082 13.2258 15.082C13.2258 15.082 12.9667 16.2604 12.9483 17.1945C13.505 17.1912 14.0633 17.067 14.9617 16.757C14.9617 16.757 14.94 17.1345 14.9458 17.5745C14.9508 18.017 14.9817 18.3945 14.9817 18.3945C14.0767 18.1029 13.5142 18.1745 12.9608 18.1845L12.9775 19.6587Z" fill="white"/>
<path d="M14.0609 23.1129C14.0609 23.1129 13.5134 21.7454 12.5209 21.7579C11.5318 21.7696 11.0143 23.1496 11.0143 23.1496C11.0143 23.1496 10.7134 22.5021 9.90261 22.5121C9.40428 22.5179 8.88678 23.0387 8.63428 23.4521C9.70428 24.7412 11.3793 25.3687 12.5709 25.9246C13.7493 25.3404 15.3593 24.7321 16.3984 23.4171C16.1359 23.0104 15.6543 22.4429 15.1559 22.4487C14.3493 22.4579 14.0609 23.1129 14.0609 23.1129Z" fill="#1976D2"/>
</svg>
