<svg width="34" height="34" viewBox="0 0 34 34" fill="none" xmlns="http://www.w3.org/2000/svg">
<path d="M16.3089 3.27466C13.9304 3.29011 9.10712 3.52725 5.9869 6.33488C5.97175 6.34829 5.95699 6.36213 5.94263 6.37639C3.90334 8.43496 3 11.3859 3 15.3177V17.4413C3 21.3731 3.90913 24.3302 5.98828 26.4269C6.00262 26.4416 6.01738 26.4559 6.03255 26.4698C6.92574 27.2722 8.08137 27.8629 9.375 28.3347V30.8734C9.375 31.7509 9.92319 32.6864 10.7419 32.9998C10.9888 33.0943 11.2466 32.9998 11.5 32.9998C12.093 32.9998 13.0904 32.4013 13.5 31.9453C13.5131 31.9312 14.7108 30.5319 15.6891 29.4526C16.2583 29.4703 16.8418 29.4844 17.1653 29.4844C18.9885 29.4844 24.7798 29.6341 28.3464 26.4255C28.3616 26.4117 28.3764 26.3974 28.3907 26.3827C30.43 24.3241 31.3333 21.3731 31.3333 17.4413L31.332 15.3177C31.332 11.3852 30.4239 8.42837 28.3451 6.3335C28.3307 6.31925 28.3159 6.3054 28.3008 6.29199C24.7725 3.1199 18.9899 3.27466 17.1667 3.27466C16.9388 3.27466 16.6487 3.27245 16.3089 3.27466ZM17.1888 5.44531C19.0078 5.44531 23.9171 5.60176 26.5 7.90235C28.0883 9.51865 29 11.5389 29 15.1379V17.4453C28.9998 21.0421 28.0389 22.915 26.5 24.4845C23.8653 26.8335 19.214 26.9861 17.3949 26.9861C16.9593 26.9861 16.2905 26.9856 15.5 26.9453C15.3415 26.9371 15 26.9453 14.5 27.4453C14.6058 27.327 14.4353 27.5181 14.5 27.4453C13.6624 28.3824 12 30.4453 12 30.4453C11.9958 30.4499 11.5041 30.8687 11.5 30.8734L11.5 28C11.5 27.6526 11.5 27 11.5 27C11.5 26.5 10.961 26.2312 10.7419 26.1657C9 25.5 8 24.5 7.5 24C5.73223 22.2322 5.6786 20.9453 5.5 17.4453V15.1379C5.5 11.5411 6.46179 9.4721 8 7.90235C10.6336 5.55279 15.3696 5.44531 17.1888 5.44531ZM17.1667 8.23438C16.7757 8.23438 16.4583 8.55171 16.4583 8.94271C16.4583 9.33371 16.7757 9.65104 17.1667 9.65104C20.6814 9.65104 23.5417 12.5113 23.5417 16.026V16.7344C23.5417 17.1254 23.859 17.4427 24.25 17.4427C24.641 17.4427 24.9583 17.1254 24.9583 16.7344V16.026C24.9583 11.73 21.4627 8.23438 17.1667 8.23438ZM11.5636 8.94271C11.111 8.942 10.5175 9.16604 10.1152 9.46566C9.51024 9.91687 8.87746 10.531 8.70817 11.296C8.6855 11.4001 8.6723 11.5052 8.66805 11.61C8.63547 12.4069 8.66212 13.2936 9 13.9785C9.79546 15.5928 11 17.4453 12 18.4453C12.3662 18.8916 13 19.4453 13.5 19.9453C13.9009 20.3576 14 20.4453 14.5 20.9453C15.8954 22.0907 17.5999 23.2596 19.2142 24.0551C19.8928 24.3894 20.7687 24.5487 21.5578 24.526C21.6704 24.5225 21.7841 24.5093 21.8967 24.4845C22.6617 24.316 23.2758 23.6825 23.7271 23.0776C24.0267 22.6752 24.2507 22.0824 24.25 21.6291C24.2493 21.3613 24.1276 21.1052 23.8612 20.8806C23.0743 20.2176 22.7108 20.0181 21.6242 19.3657C21.1716 19.0944 20.4823 18.8594 20.1204 18.8594C19.8732 18.8594 19.5768 19.0488 19.3954 19.2301C18.9308 19.6948 18.7781 20.276 17.9635 20.276C17.1667 20.276 15.9988 19.4936 15 18.4453C13.9517 17.4466 12.9167 16.026 12.9167 15.2292C12.9167 14.4146 13.4882 14.2516 13.9529 13.7862C14.1342 13.6056 14.3333 13.3099 14.3333 13.0627C14.3333 12.7007 14.0983 12.0212 13.827 11.5685C13.1746 10.4812 12.9758 10.1177 12.3121 9.33146C12.0876 9.06513 11.8314 8.94342 11.5636 8.94271ZM17.4696 10.3718C17.085 10.3506 16.7459 10.6504 16.7253 11.0414C16.7048 11.4317 17.0039 11.7652 17.3949 11.7857C19.6503 11.9047 21.4167 13.7679 21.4167 16.026C21.4167 16.417 21.734 16.7344 22.125 16.7344C22.516 16.7344 22.8333 16.417 22.8333 16.026C22.8333 13.0142 20.4779 10.5305 17.4696 10.3718ZM17.7712 12.5923C17.4978 12.633 17.2621 12.8315 17.1888 13.1152C17.0911 13.4942 17.319 13.8801 17.6979 13.9785C18.4395 14.1698 19.0201 14.7517 19.2142 15.4962C19.2971 15.8149 19.5845 16.026 19.899 16.026C19.9578 16.026 20.0187 16.0181 20.0789 16.0025C20.4571 15.9034 20.6837 15.5168 20.5852 15.1379C20.2615 13.8969 19.2916 12.9284 18.0535 12.6075C17.9584 12.5832 17.8624 12.5787 17.7712 12.5923Z" fill="#7360F2"/>
</svg>
