<?xml version="1.0" standalone="no"?>
<!DOCTYPE svg PUBLIC "-//W3C//DTD SVG 20010904//EN"
 "http://www.w3.org/TR/2001/REC-SVG-20010904/DTD/svg10.dtd">
<svg version="1.0" xmlns="http://www.w3.org/2000/svg"
 width="344.000000pt" height="344.000000pt" viewBox="0 0 344.000000 344.000000"
 preserveAspectRatio="xMidYMid meet">
<metadata>
Created by potrace 1.14, written by Peter Selinger 2001-2017
</metadata>
<g transform="translate(0.000000,344.000000) scale(0.100000,-0.100000)"
fill="#000000" stroke="none">
<path d="M24 2963 c25 -62 139 -337 339 -813 l123 -295 86 -3 85 -3 93 223
c51 123 99 237 106 253 34 77 277 662 281 678 5 15 -4 17 -100 17 -101 0 -106
-1 -113 -22 -3 -13 -15 -41 -25 -63 -9 -22 -86 -206 -169 -410 -84 -203 -153
-371 -155 -373 -1 -2 -24 48 -50 110 -26 62 -53 127 -60 143 -7 17 -67 161
-133 320 l-119 290 -106 3 -106 3 23 -58z"/>
<path d="M1298 2573 c-2 -247 -2 -510 0 -585 l3 -138 94 0 95 0 0 585 0 585
-95 0 -95 0 -2 -447z"/>
<path d="M1776 2447 c1 -314 2 -578 3 -584 1 -10 27 -13 96 -13 l95 0 0 585 0
585 -97 0 -98 0 1 -573z"/>
<path d="M2259 3018 c-1 -2 -2 -265 -3 -586 l-1 -583 455 3 455 3 57 27 c77
36 150 106 178 171 30 70 37 168 16 239 -17 61 -77 133 -135 162 l-32 17 30
35 c56 64 66 91 66 189 0 74 -4 98 -23 137 -31 63 -96 126 -162 157 l-55 26
-422 3 c-233 2 -424 2 -424 0z m816 -194 c56 -29 78 -64 83 -131 3 -48 0 -64
-20 -93 -46 -68 -62 -71 -387 -71 -160 0 -294 2 -298 4 -6 4 -9 312 -4 312
561 0 587 -1 626 -21z m32 -469 c77 -14 135 -82 135 -159 0 -51 -13 -83 -46
-118 -45 -47 -76 -51 -401 -51 -165 1 -311 1 -325 2 l-25 1 2 157 c1 87 2 161
2 165 1 4 16 8 34 10 61 6 587 0 624 -7z"/>
<path d="M2913 1620 c-104 -22 -191 -83 -231 -164 -28 -56 -33 -76 -33 -150 0
-93 27 -163 86 -222 62 -63 111 -88 277 -144 143 -48 197 -84 215 -144 35
-113 -42 -191 -187 -191 -113 1 -196 51 -221 134 l-11 37 -95 0 -95 0 5 -42
c4 -47 45 -136 80 -174 82 -91 179 -132 325 -136 148 -3 236 28 318 113 62 65
83 127 80 233 -2 69 -8 95 -28 136 -54 103 -132 155 -341 224 -165 54 -217 98
-217 182 0 82 66 132 175 133 61 0 75 -4 114 -30 28 -19 53 -47 67 -76 l23
-45 93 1 c93 1 93 1 90 25 -13 114 -112 239 -222 282 -62 24 -197 33 -267 18z"/>
<path d="M131 1025 l0 -585 1158 0 1158 0 -1 93 -1 92 -1050 1 c-577 1 -1055
2 -1060 3 -6 1 -10 59 -10 156 l0 155 1013 0 1013 0 -3 93 -3 92 -1010 0
-1010 0 1 140 c1 77 2 145 3 150 1 7 358 10 1059 10 l1057 0 1 93 2 92 -1159
0 -1158 0 0 -585z"/>
</g>
</svg>
