<svg width="116" height="92" viewBox="0 0 116 92" fill="none" xmlns="http://www.w3.org/2000/svg">
<g clip-path="url(#clip0_1209_18990)">
<path d="M89.6428 26.3815L32.4626 18.5768C19.3492 16.7869 7.26777 25.9664 5.4779 39.0797C3.68802 52.1931 12.8675 64.2745 25.9809 66.0644L83.1611 73.8691C96.2745 75.659 108.356 66.4795 110.146 53.3661C111.936 40.2528 102.756 28.1713 89.6428 26.3815Z" fill="#F7EBFE"/>
<path d="M31.736 52.5896C30.7363 52.4531 29.924 52.1555 29.2993 51.6969C28.6756 51.2299 28.2303 50.6684 27.9634 50.0124C27.706 49.3493 27.6273 48.6512 27.7274 47.918C27.8206 47.2349 28.0233 46.6516 28.3354 46.168C28.6475 45.6844 29.0654 45.2959 29.5893 45.0025C30.1141 44.7007 30.7377 44.4846 31.4599 44.3541C32.0836 44.2609 32.7836 44.1995 33.56 44.1697C34.3363 44.1399 35.149 44.1235 35.998 44.1206C36.8554 44.1188 37.7044 44.1159 38.5452 44.1118L37.5237 44.5071C37.6848 43.4512 37.5668 42.6375 37.1696 42.0656C36.7819 41.4865 36.0257 41.1202 34.901 40.9667C34.1928 40.87 33.5203 40.9479 32.8832 41.2004C32.2474 41.4446 31.7611 41.9299 31.4243 42.6561L29.0898 41.5737C29.5811 40.4612 30.3399 39.627 31.3663 39.0712C32.4009 38.5166 33.6972 38.3456 35.2551 38.5582C36.4632 38.7231 37.4845 39.0747 38.3191 39.6129C39.1631 40.1439 39.7326 40.8836 40.0274 41.8319C40.1838 42.303 40.2534 42.7877 40.2363 43.2861C40.2192 43.7844 40.172 44.3169 40.0947 44.8834L38.9604 53.1937L36.6485 52.8782L37.0698 49.7915L37.4651 50.2528C36.7659 51.2097 35.9484 51.8831 35.0126 52.273C34.0863 52.6558 32.994 52.7613 31.736 52.5896ZM32.4901 50.5158C33.2316 50.617 33.8865 50.5748 34.455 50.3893C35.0246 50.1955 35.4997 49.9166 35.8803 49.5528C36.2609 49.1889 36.5314 48.793 36.6916 48.3651C36.8878 47.9845 37.0284 47.5455 37.1133 47.0479C37.2065 46.5514 37.2736 46.1532 37.3145 45.8533L38.1216 46.2817C37.2798 46.2941 36.5147 46.3042 35.8262 46.3121C35.1377 46.3199 34.5118 46.3363 33.9483 46.3613C33.3942 46.379 32.8956 46.4255 32.4526 46.5008C32.0773 46.5769 31.736 46.6831 31.4289 46.8194C31.1301 46.9568 30.8803 47.1391 30.6796 47.3663C30.4872 47.5946 30.3665 47.8879 30.3176 48.2462C30.2699 48.5961 30.313 48.9329 30.447 49.2567C30.5822 49.5722 30.8169 49.8418 31.1513 50.0657C31.4856 50.2895 31.9319 50.4396 32.4901 50.5158ZM51.6779 54.9296L52.5837 48.2938C52.6553 47.769 52.6828 47.2253 52.6663 46.663C52.6591 46.0934 52.563 45.5542 52.3779 45.0452C52.2011 44.5373 51.9077 44.1069 51.4976 43.7539C51.0958 43.402 50.5367 43.1772 49.8202 43.0794C49.3537 43.0157 48.9013 43.0346 48.4632 43.1361C48.0262 43.2291 47.6261 43.4249 47.2629 43.7233C46.908 44.0227 46.6007 44.4391 46.3413 44.9723C46.0901 45.5066 45.91 46.1736 45.8008 46.9734L44.2598 46.1394C44.427 44.9146 44.8034 43.867 45.3889 42.9965C45.9756 42.1176 46.7339 41.4743 47.6636 41.0666C48.5934 40.6588 49.6665 40.538 50.8828 40.704C51.8159 40.8313 52.5786 41.0882 53.1707 41.4745C53.763 41.8609 54.2213 42.3266 54.5458 42.8716C54.8798 43.4094 55.1116 43.9799 55.2415 44.5831C55.3713 45.1864 55.4362 45.7681 55.4361 46.3282C55.436 46.8883 55.4076 47.3766 55.3507 47.7932L54.3273 55.2912L51.6779 54.9296ZM42.1929 53.6349L44.6491 35.6397L46.986 35.9587L45.6607 45.6686L45.9731 45.7113L44.8422 53.9966L42.1929 53.6349ZM63.3922 56.9104C62.0427 56.7261 60.9133 56.2623 60.0051 55.5188C59.0966 54.7753 58.4444 53.8334 58.0484 52.6931C57.6619 51.5456 57.5642 50.272 57.7553 48.8724C57.9473 47.4645 58.3914 46.2648 59.0867 45.2735C59.7833 44.2737 60.6673 43.546 61.7399 43.0896C62.8131 42.6251 64.0121 42.4832 65.3367 42.6641C66.6862 42.8484 67.815 43.3122 68.7238 44.0556C69.632 44.7992 70.2843 45.741 70.6802 46.8814C71.0762 48.0217 71.1793 49.2875 70.9896 50.6787C70.7974 52.0867 70.353 53.2905 69.6564 54.2902C68.9692 55.2827 68.0883 56.0154 67.0138 56.4882C65.9406 56.9528 64.7336 57.0934 63.3922 56.9104ZM63.7282 54.4485C65.0193 54.6248 66.0409 54.3229 66.7923 53.5429C67.553 52.7557 68.0276 51.6747 68.2149 50.3001C68.407 48.8922 68.2358 47.7231 67.701 46.7929C67.1756 45.8555 66.2751 45.3 65.0007 45.1259C64.1255 45.0067 63.378 45.1081 62.7565 45.4308C62.1368 45.7449 61.6414 46.2333 61.2709 46.8956C60.9017 47.5495 60.6549 48.3346 60.5292 49.2512C60.3364 50.6674 60.5065 51.8448 61.0406 52.7832C61.5741 53.7218 62.47 54.2768 63.7282 54.4485ZM69.9945 63.5399L70.332 61.0656L71.0195 61.1593C71.711 61.2537 72.2375 61.1559 72.5997 60.8659C72.9705 60.5769 73.2027 60.0867 73.297 59.3953L75.3422 44.4117L77.9667 44.7698L75.7764 60.8157C75.6261 61.9155 75.2064 62.7236 74.5162 63.2405C73.8346 63.7585 72.9315 63.9407 71.8067 63.7871L69.9945 63.5399ZM75.6443 42.1997L75.9902 39.6629L78.6147 40.0211L78.2682 42.558L75.6443 42.1997ZM80.9454 58.9244L81.2919 56.3875L83.9037 56.744L83.5572 59.2809L80.9454 58.9244ZM81.5595 54.4255L83.4018 40.929L86.0136 41.2856L84.1713 54.782L81.5595 54.4255Z" fill="#A264F1"/>
<path d="M50.4007 69.3758L26.6569 66.1349L24.5248 81.7559L50.4007 69.3758Z" fill="#F7EBFE"/>
</g>
<defs>
<clipPath id="clip0_1209_18990">
<rect width="102.162" height="70" fill="white" transform="translate(0 23.9219) rotate(-13.5406)"/>
</clipPath>
</defs>
</svg>
