<svg width="32" height="32" viewBox="0 0 32 32" fill="none" xmlns="http://www.w3.org/2000/svg">
<path d="M23.7173 8.30759C23.1973 8.28759 22.7148 8.58509 22.5023 9.06009C22.2873 9.53509 22.3798 10.0901 22.7398 10.4701L26.6723 14.7201H1.91984C1.45734 14.7126 1.02984 14.9551 0.797344 15.3551C0.562344 15.7526 0.562344 16.2476 0.797344 16.6451C1.02984 17.0451 1.45734 17.2876 1.91984 17.2801H26.6723L22.7398 21.5301C22.4198 21.8651 22.3073 22.3451 22.4423 22.7876C22.5773 23.2301 22.9398 23.5651 23.3898 23.6651C23.8423 23.7651 24.3123 23.6126 24.6198 23.2701L31.3423 16.0001L24.6198 8.73009C24.3898 8.47509 24.0623 8.32009 23.7173 8.30759Z" fill="white"/>
</svg>
