<svg width="40" height="40" viewBox="0 0 40 40" fill="none" xmlns="http://www.w3.org/2000/svg">
<g clip-path="url(#clip0_3767_38620)">
<path d="M38.8364 26.666H7.99951V26.999V28.9988V30.9989V32.9988V34.9987V35.9717C11.3444 38.4885 15.4902 39.9985 19.999 39.9985C28.7027 39.9985 36.0875 34.4277 38.8364 26.666Z" fill="url(#paint0_linear_3767_38620)"/>
<path d="M5.99977 12.9997H7.9997V14.9996H5.99977V12.9997ZM5.99977 8.99985H7.9997V10.9998H5.99977V8.99985ZM3.99985 10.9998H5.99977V12.9997H3.99985V10.9998ZM3.99985 18.9995H5.99977V20.9993H3.99985V18.9995ZM5.99977 16.9995H7.9997V18.9995H5.99977V16.9995ZM5.99977 20.9993H7.9997V22.9993H5.99977V20.9993ZM3.99985 22.9993H5.99977V24.9992H3.99985V22.9993ZM3.99985 14.9996H5.99977V16.9995H3.99985V14.9996ZM1.99992 12.9997H3.99985V14.9996H1.99992V12.9997ZM5.99977 28.9992H7.9997V30.999H5.99977V28.9992ZM1.99992 11.3258C1.73693 11.8707 1.49794 12.4287 1.28395 12.9997H1.99992V11.3258ZM5.99977 24.9992V26.9992H7.9997V26.6662V24.9992H5.99977ZM7.9997 6.99992V5H6.80175C6.53075 5.23898 6.25777 5.47598 5.99977 5.72897V6.99992H7.9997ZM1.28395 26.9992C1.49794 27.5702 1.73693 28.1282 1.99992 28.6732V26.9992H1.28395ZM3.99985 26.9992H5.99977V28.9992H3.99985V26.9992ZM1.99992 22.9993H0.24899C0.350987 23.6783 0.486982 24.3443 0.655975 24.9992H1.99992V22.9993ZM1.99992 18.9995H0.0499983C0.0339988 19.3325 0 19.6615 0 19.9995C0 20.3373 0.0339988 20.6663 0.0499983 20.9993H1.99992V18.9995ZM5.99977 8.99985V6.99992H4.81982C4.53283 7.33492 4.26383 7.6829 3.99985 8.03588V8.99985H5.99977ZM1.99992 16.9995H3.99985V18.9995H1.99992V16.9995ZM1.99992 14.9996H0.655975C0.486982 15.6546 0.351987 16.3206 0.24899 16.9995H1.99992V14.9996ZM3.99985 28.9992H2.15692C2.5049 29.688 2.88188 30.359 3.30487 30.999H3.99985V28.9992ZM5.99977 30.999H3.99985V31.963C4.26383 32.316 4.53283 32.664 4.81982 32.999H5.99977V30.999ZM3.99985 8.99985H3.30487C2.88188 9.63982 2.5049 10.3108 2.15692 10.9998H3.99985V8.99985ZM1.99992 24.9992H3.99985V26.9992H1.99992V24.9992ZM1.99992 20.9993H3.99985V22.9993H1.99992V20.9993ZM7.9997 32.999H5.99977V34.2698C6.25777 34.5228 6.53075 34.7598 6.80175 34.9988H7.9997V32.999Z" fill="#F0F4F7"/>
<path d="M3.99965 8.0357C3.76266 8.35368 3.52368 8.66867 3.30468 8.99965H3.99965V8.0357ZM5.99958 5.72878C5.58659 6.13377 5.19661 6.55975 4.81963 6.99973H5.99958V5.72878ZM7.99949 4.02685C7.58751 4.33683 7.18753 4.65982 6.80154 4.99982H7.99949V4.02685ZM5.99958 6.99973H7.99949V8.99965H5.99958V6.99973ZM3.99965 12.9995V10.9996H2.15673C2.10273 11.1076 2.05173 11.2166 1.99973 11.3256V12.9995H3.99965ZM3.99965 8.99965H5.99958V10.9996H3.99965V8.99965ZM5.99958 10.9996H7.99949V12.9995H5.99958V10.9996ZM1.99973 12.9995H1.28376C1.03977 13.6515 0.830774 14.3174 0.654781 14.9994H1.99973V12.9995ZM1.99973 14.9994H3.99965V16.9993H1.99973V14.9994ZM3.99965 12.9995H5.99958V14.9994H3.99965V12.9995ZM5.99958 14.9994H7.99949V16.9993H5.99958V14.9994ZM1.99973 16.9993H0.248798C0.149801 17.6563 0.0838033 18.3233 0.0498047 18.9993H1.99973V16.9993ZM1.99973 18.9993H3.99965V20.9992H1.99973V18.9993ZM3.99965 16.9993H5.99958V18.9993H3.99965V16.9993ZM5.99958 18.9993H7.99949V20.9992H5.99958V18.9993ZM1.99973 20.9992H0.0498047C0.0838033 21.6752 0.148801 22.3422 0.248798 22.9992H1.99973V20.9992ZM1.99973 22.9992H3.99965V24.999H1.99973V22.9992ZM3.99965 20.9992H5.99958V22.9992H3.99965V20.9992ZM5.99958 22.9992H7.99949V24.999H5.99958V22.9992ZM1.99973 24.999H0.655781C0.831774 25.681 1.04077 26.347 1.28476 26.999H1.99973V24.999ZM3.99965 26.999H1.99973V28.6728C2.05173 28.7818 2.10273 28.8908 2.15673 28.9988H3.99965V26.999ZM3.99965 24.999H5.99958V26.999H3.99965V24.999ZM5.99958 26.999H7.99949V28.9988H5.99958V26.999ZM3.30468 30.9988C3.52368 31.3298 3.76266 31.6448 3.99965 31.9628V30.9988H3.30468ZM3.99965 28.9988H5.99958V30.9988H3.99965V28.9988ZM5.99958 30.9988H7.99949V32.9987H5.99958V30.9988ZM4.81963 32.9987C5.19661 33.4377 5.58659 33.8647 5.99958 34.2697V32.9987H4.81963ZM6.80154 34.9987C7.18753 35.3387 7.58751 35.6617 7.99949 35.9717V34.9987H6.80154ZM7.99949 6.99973V8.99965V10.9996V12.9995V14.9994V16.9993V18.9993V20.9992V22.9992V24.999V26.666H38.8363C39.5753 24.578 39.9983 22.3402 39.9983 19.9992C39.9983 8.95367 31.0447 0 19.999 0C15.4902 0 11.3444 1.50994 7.99949 4.02685V4.99982V6.99973Z" fill="url(#paint1_linear_3767_38620)"/>
</g>
<defs>
<linearGradient id="paint0_linear_3767_38620" x1="15.9742" y1="20.3542" x2="33.2945" y2="45.8674" gradientUnits="userSpaceOnUse">
<stop stop-color="#21AD64"/>
<stop offset="1" stop-color="#088242"/>
</linearGradient>
<linearGradient id="paint1_linear_3767_38620" x1="9.83843" y1="5.78278" x2="33.0825" y2="38.2725" gradientUnits="userSpaceOnUse">
<stop offset="0.008" stop-color="#F44F5A"/>
<stop offset="0.447" stop-color="#EE3D4A"/>
<stop offset="1" stop-color="#E52030"/>
</linearGradient>
<clipPath id="clip0_3767_38620">
<rect width="40" height="40" fill="white"/>
</clipPath>
</defs>
</svg>
