<svg width="32" height="32" viewBox="0 0 32 32" fill="none" xmlns="http://www.w3.org/2000/svg">
<path d="M16.0013 2.66406C8.6493 2.66406 2.66797 8.6454 2.66797 15.9974C2.66797 23.3494 8.6493 29.3307 16.0013 29.3307C23.3533 29.3307 29.3346 23.3494 29.3346 15.9974C29.3346 8.6454 23.3533 2.66406 16.0013 2.66406ZM21.3346 11.3307C22.4386 11.3307 23.3346 12.2267 23.3346 13.3307C23.3346 14.4347 22.4386 15.3307 21.3346 15.3307C20.2306 15.3307 19.3346 14.4347 19.3346 13.3307C19.3346 12.2267 20.2306 11.3307 21.3346 11.3307ZM10.668 11.3307C11.772 11.3307 12.668 12.2267 12.668 13.3307C12.668 14.4347 11.772 15.3307 10.668 15.3307C9.56397 15.3307 8.66797 14.4347 8.66797 13.3307C8.66797 12.2267 9.56397 11.3307 10.668 11.3307ZM21.5386 23.1041C18.3293 20.8107 13.6746 20.8107 10.464 23.1041L8.91464 20.9334C10.9746 19.4627 13.4253 18.6854 16.0013 18.6854C18.5773 18.6854 21.028 19.4627 23.088 20.9334L21.5386 23.1041Z" fill="#FF595B"/>
</svg>
