<svg width="74" height="74" viewBox="0 0 74 74" fill="none" xmlns="http://www.w3.org/2000/svg">
<path d="M7.58594 42.9193L1.04594 44.2226C1.51594 46.5693 2.21927 48.8826 3.1426 51.0993L9.29594 48.5326C8.5426 46.7259 7.96927 44.8393 7.58594 42.9193ZM7.55927 31.2159L1.01927 29.9326C0.565938 32.2426 0.335938 34.6226 0.335938 37.0026V37.0726L7.0026 37.0026C7.0026 35.0526 7.18927 33.1026 7.55927 31.2159ZM12.0093 20.4026L6.4626 16.7026C5.13594 18.6926 3.99927 20.8259 3.08594 23.0459L9.2526 25.5859C9.99594 23.7726 10.9259 22.0293 12.0093 20.4026ZM20.2693 12.0959L16.5393 6.56927C14.5526 7.90927 12.6926 9.44927 11.0059 11.1393L15.7293 15.8459C17.1126 14.4559 18.6393 13.1959 20.2693 12.0959ZM31.0526 7.59594L29.7493 1.05927C27.3959 1.52594 25.0826 2.23594 22.8693 3.1626L25.4426 9.31594C27.2493 8.55594 29.1359 7.97927 31.0526 7.59594ZM44.0259 1.03594C44.0259 1.03594 42.5426 0.789271 41.9626 0.712604C41.3893 0.635938 39.9159 0.475938 39.9159 0.475938C38.9493 0.399271 36.8993 0.335938 36.8993 0.335938L37.0026 7.0026C37.8826 7.0026 38.7659 7.0526 39.6459 7.12927C40.1726 7.17594 42.0393 7.4326 42.4559 7.50927C56.4426 10.0959 67.0026 22.4926 67.0026 37.0026C67.0026 53.5459 53.5426 67.0026 37.0026 67.0026C28.6559 67.0026 20.7626 63.4926 15.1293 57.4859C14.8693 57.2093 14.6126 56.9326 14.3626 56.6426C13.8259 56.0259 13.3226 55.3826 12.8326 54.7193C12.5859 54.3826 12.3159 54.0593 12.0826 53.7126L6.54927 57.4293C6.67927 57.6226 6.8326 57.7993 6.96594 57.9893L6.94594 58.0026C7.10594 58.2326 7.29927 58.4293 7.4626 58.6526C8.05927 59.4659 11.1659 62.9193 11.1659 62.9193C17.9826 69.7059 27.2293 73.6693 37.0026 73.6693C57.2193 73.6693 73.6693 57.2193 73.6693 37.0026C73.6693 19.3993 60.9426 4.34927 44.0259 1.03594Z" fill="#A264F1"/>
</svg>
