<svg width="32" height="32" viewBox="0 0 32 32" fill="none" xmlns="http://www.w3.org/2000/svg">
<path d="M16.0013 2.66602C8.62797 2.66602 2.66797 8.62602 2.66797 15.9993C2.66797 23.3727 8.62797 29.3327 16.0013 29.3327C23.3746 29.3327 29.3346 23.3727 29.3346 15.9993C29.3346 8.62602 23.3746 2.66602 16.0013 2.66602ZM22.2773 20.39C22.7986 20.9113 22.7986 21.754 22.2773 22.2753C22.0173 22.5353 21.676 22.666 21.3346 22.666C20.9933 22.666 20.652 22.5353 20.392 22.2753L16.0013 17.8847L11.6106 22.2753C11.3506 22.5353 11.0093 22.666 10.668 22.666C10.3266 22.666 9.9853 22.5353 9.7253 22.2753C9.20397 21.754 9.20397 20.9113 9.7253 20.39L14.116 15.9993L9.7253 11.6087C9.20397 11.0873 9.20397 10.2447 9.7253 9.72335C10.2466 9.20202 11.0893 9.20202 11.6106 9.72335L16.0013 14.114L20.392 9.72335C20.9133 9.20202 21.756 9.20202 22.2773 9.72335C22.7986 10.2447 22.7986 11.0873 22.2773 11.6087L17.8866 15.9993L22.2773 20.39Z" fill="#F16C6C"/>
</svg>
