<svg width="32" height="32" viewBox="0 0 32 32" fill="none" xmlns="http://www.w3.org/2000/svg">
<path d="M18.889 8.73255C18.3915 8.78005 17.9665 9.11505 17.804 9.58755C17.639 10.0626 17.7665 10.5876 18.129 10.9326L22.269 15.0726H6.18904C6.14904 15.0701 6.10904 15.0701 6.06904 15.0726C5.36154 15.1051 4.81654 15.7051 4.84904 16.4126C4.88154 17.1201 5.48154 17.6651 6.18904 17.6326H22.269L18.109 21.7726C17.6065 22.2751 17.6065 23.0901 18.109 23.5926C18.6115 24.0951 19.4265 24.0951 19.929 23.5926L26.249 17.2526L27.169 16.3526L26.249 15.4526L19.929 9.11255C19.659 8.83505 19.2765 8.69505 18.889 8.73255Z" fill="#A264F1"/>
</svg>
