<svg width="16" height="16" viewBox="0 0 16 16" fill="none" xmlns="http://www.w3.org/2000/svg">
<path d="M6.9349 1.60156C3.99569 1.60156 1.60156 3.99569 1.60156 6.9349C1.60156 9.8741 3.99569 12.2682 6.9349 12.2682C8.21303 12.2682 9.38683 11.8144 10.3068 11.0609L13.4911 14.2453C13.5403 14.2965 13.5992 14.3374 13.6643 14.3655C13.7294 14.3937 13.7995 14.4085 13.8705 14.4093C13.9414 14.41 14.0118 14.3965 14.0775 14.3697C14.1432 14.3429 14.2029 14.3032 14.2531 14.2531C14.3032 14.2029 14.3429 14.1432 14.3697 14.0775C14.3965 14.0118 14.41 13.9414 14.4093 13.8705C14.4085 13.7995 14.3937 13.7294 14.3655 13.6643C14.3374 13.5992 14.2965 13.5403 14.2453 13.4911L11.0609 10.3068C11.8144 9.38683 12.2682 8.21303 12.2682 6.9349C12.2682 3.99569 9.8741 1.60156 6.9349 1.60156ZM6.9349 2.66823C9.29763 2.66823 11.2016 4.57216 11.2016 6.9349C11.2016 9.29763 9.29763 11.2016 6.9349 11.2016C4.57216 11.2016 2.66823 9.29763 2.66823 6.9349C2.66823 4.57216 4.57216 2.66823 6.9349 2.66823Z" fill="white"/>
</svg>
