<svg width="40" height="40" viewBox="0 0 40 40" fill="none" xmlns="http://www.w3.org/2000/svg">
<path d="M35.6983 25.5566H10V25.8341V27.5008V29.1675V30.8341V32.5008V33.3116C12.7875 35.4091 16.2425 36.6675 20 36.6675C27.2533 36.6675 33.4075 32.025 35.6983 25.5566Z" fill="url(#paint0_linear_3767_38942)"/>
<path d="M8.3335 14.1667H10.0002V15.8333H8.3335V14.1667ZM8.3335 10.8333H10.0002V12.5H8.3335V10.8333ZM6.66683 12.5H8.3335V14.1667H6.66683V12.5ZM6.66683 19.1667H8.3335V20.8333H6.66683V19.1667ZM8.3335 17.5H10.0002V19.1667H8.3335V17.5ZM8.3335 20.8333H10.0002V22.5H8.3335V20.8333ZM6.66683 22.5H8.3335V24.1667H6.66683V22.5ZM6.66683 15.8333H8.3335V17.5H6.66683V15.8333ZM5.00016 14.1667H6.66683V15.8333H5.00016V14.1667ZM8.3335 27.5H10.0002V29.1667H8.3335V27.5ZM5.00016 12.7717C4.781 13.2258 4.58183 13.6908 4.4035 14.1667H5.00016V12.7717ZM8.3335 24.1667V25.8333H10.0002V25.5558V24.1667H8.3335ZM10.0002 9.16667V7.5H9.00183C8.776 7.69917 8.5485 7.89667 8.3335 8.1075V9.16667H10.0002ZM4.4035 25.8333C4.58183 26.3092 4.781 26.7742 5.00016 27.2283V25.8333H4.4035ZM6.66683 25.8333H8.3335V27.5H6.66683V25.8333ZM5.00016 22.5H3.541C3.626 23.0658 3.73933 23.6208 3.88016 24.1667H5.00016V22.5ZM5.00016 19.1667H3.37516C3.36183 19.4442 3.3335 19.7183 3.3335 20C3.3335 20.2817 3.36183 20.5558 3.37516 20.8333H5.00016V19.1667ZM8.3335 10.8333V9.16667H7.35016C7.111 9.44583 6.88683 9.73583 6.66683 10.03V10.8333H8.3335ZM5.00016 17.5H6.66683V19.1667H5.00016V17.5ZM5.00016 15.8333H3.88016C3.73933 16.3792 3.62683 16.9342 3.541 17.5H5.00016V15.8333ZM6.66683 27.5H5.131C5.421 28.0742 5.73516 28.6333 6.08766 29.1667H6.66683V27.5ZM8.3335 29.1667H6.66683V29.97C6.88683 30.2642 7.111 30.5542 7.35016 30.8333H8.3335V29.1667ZM6.66683 10.8333H6.08766C5.73516 11.3667 5.421 11.9258 5.131 12.5H6.66683V10.8333ZM5.00016 24.1667H6.66683V25.8333H5.00016V24.1667ZM5.00016 20.8333H6.66683V22.5H5.00016V20.8333ZM10.0002 30.8333H8.3335V31.8925C8.5485 32.1033 8.776 32.3008 9.00183 32.5H10.0002V30.8333Z" fill="#F0F4F7"/>
<path d="M6.66618 10.0326C6.46868 10.2976 6.26951 10.5601 6.08701 10.8359H6.66618V10.0326ZM8.33284 8.1101C7.98868 8.4476 7.66368 8.8026 7.34951 9.16927H8.33284V8.1101ZM9.99951 6.69177C9.65618 6.9501 9.32284 7.21927 9.00118 7.5026H9.99951V6.69177ZM8.33284 9.16927H9.99951V10.8359H8.33284V9.16927ZM6.66618 14.1693V12.5026H5.13034C5.08534 12.5926 5.04284 12.6834 4.99951 12.7743V14.1693H6.66618ZM6.66618 10.8359H8.33284V12.5026H6.66618V10.8359ZM8.33284 12.5026H9.99951V14.1693H8.33284V12.5026ZM4.99951 14.1693H4.40284C4.19951 14.7126 4.02535 15.2676 3.87868 15.8359H4.99951V14.1693ZM4.99951 15.8359H6.66618V17.5026H4.99951V15.8359ZM6.66618 14.1693H8.33284V15.8359H6.66618V14.1693ZM8.33284 15.8359H9.99951V17.5026H8.33284V15.8359ZM4.99951 17.5026H3.54034C3.45784 18.0501 3.40285 18.6059 3.37451 19.1693H4.99951V17.5026ZM4.99951 19.1693H6.66618V20.8359H4.99951V19.1693ZM6.66618 17.5026H8.33284V19.1693H6.66618V17.5026ZM8.33284 19.1693H9.99951V20.8359H8.33284V19.1693ZM4.99951 20.8359H3.37451C3.40285 21.3993 3.45701 21.9551 3.54034 22.5026H4.99951V20.8359ZM4.99951 22.5026H6.66618V24.1693H4.99951V22.5026ZM6.66618 20.8359H8.33284V22.5026H6.66618V20.8359ZM8.33284 22.5026H9.99951V24.1693H8.33284V22.5026ZM4.99951 24.1693H3.87951C4.02618 24.7376 4.20034 25.2926 4.40368 25.8359H4.99951V24.1693ZM6.66618 25.8359H4.99951V27.2309C5.04284 27.3218 5.08534 27.4126 5.13034 27.5026H6.66618V25.8359ZM6.66618 24.1693H8.33284V25.8359H6.66618V24.1693ZM8.33284 25.8359H9.99951V27.5026H8.33284V25.8359ZM6.08701 29.1693C6.26951 29.4451 6.46868 29.7076 6.66618 29.9726V29.1693H6.08701ZM6.66618 27.5026H8.33284V29.1693H6.66618V27.5026ZM8.33284 29.1693H9.99951V30.8359H8.33284V29.1693ZM7.34951 30.8359C7.66368 31.2018 7.98868 31.5576 8.33284 31.8951V30.8359H7.34951ZM9.00118 32.5026C9.32284 32.7859 9.65618 33.0551 9.99951 33.3134V32.5026H9.00118ZM9.99951 9.16927V10.8359V12.5026V14.1693V15.8359V17.5026V19.1693V20.8359V22.5026V24.1693V25.5584H35.6978C36.3137 23.8184 36.6662 21.9534 36.6662 20.0026C36.6662 10.7976 29.2045 3.33594 19.9995 3.33594C16.242 3.33594 12.787 4.59427 9.99951 6.69177V7.5026V9.16927Z" fill="url(#paint1_linear_3767_38942)"/>
<defs>
<linearGradient id="paint0_linear_3767_38942" x1="16.6458" y1="20.2966" x2="31.08" y2="41.5583" gradientUnits="userSpaceOnUse">
<stop stop-color="#21AD64"/>
<stop offset="1" stop-color="#088242"/>
</linearGradient>
<linearGradient id="paint1_linear_3767_38942" x1="11.532" y1="8.1551" x2="30.9028" y2="35.2309" gradientUnits="userSpaceOnUse">
<stop offset="0.008" stop-color="#F44F5A"/>
<stop offset="0.447" stop-color="#EE3D4A"/>
<stop offset="1" stop-color="#E52030"/>
</linearGradient>
</defs>
</svg>
