<svg width="32" height="32" viewBox="0 0 32 32" fill="none" xmlns="http://www.w3.org/2000/svg">
<path d="M16.0013 2.66406C8.6373 2.66406 2.66797 8.6334 2.66797 15.9974C2.66797 23.3614 8.6373 29.3307 16.0013 29.3307C23.3653 29.3307 29.3346 23.3614 29.3346 15.9974C29.3346 8.6334 23.3653 2.66406 16.0013 2.66406ZM20.668 10.6641C21.7746 10.6641 22.668 11.5574 22.668 12.6641C22.668 13.7707 21.7746 14.6641 20.668 14.6641C19.5613 14.6641 18.668 13.7707 18.668 12.6641C18.668 11.5574 19.5613 10.6641 20.668 10.6641ZM11.3346 10.6641C12.4413 10.6641 13.3346 11.5574 13.3346 12.6641C13.3346 13.7707 12.4413 14.6641 11.3346 14.6641C10.228 14.6641 9.33463 13.7707 9.33463 12.6641C9.33463 11.5574 10.228 10.6641 11.3346 10.6641ZM16.0013 23.3307C12.8946 23.3307 10.2546 21.3841 9.18797 18.6641H22.8146C21.748 21.3841 19.108 23.3307 16.0013 23.3307Z" fill="#25D366"/>
</svg>
