<svg width="34" height="34" viewBox="0 0 34 34" fill="none" xmlns="http://www.w3.org/2000/svg">
<path d="M17.165 4C9.90976 4 4 9.90976 4 17.165C4 24.4202 9.90976 30.33 17.165 30.33C24.4202 30.33 30.33 24.4202 30.33 17.165C30.33 9.90976 24.4202 4 17.165 4ZM17.165 6.633C22.9973 6.633 27.697 11.3327 27.697 17.165C27.697 22.45 23.8335 26.7926 18.7695 27.5633V20.3045H21.8345L22.3153 17.1907H18.7695V15.4885C18.7695 14.1944 19.1911 13.0458 20.4023 13.0458H22.3461V10.3279C22.0039 10.2819 21.2815 10.1814 19.9163 10.1814C17.0647 10.1814 15.3934 11.6875 15.3934 15.1183V17.1907H12.4621V20.3045H15.3934V27.5376C10.4117 26.6976 6.633 22.3918 6.633 17.165C6.633 11.3327 11.3327 6.633 17.165 6.633Z" fill="#4267B2"/>
</svg>
