<svg width="40" height="41" viewBox="0 0 40 41" fill="none" xmlns="http://www.w3.org/2000/svg">
<path d="M13.3333 5.5C8.73833 5.5 5 9.23833 5 13.8333V27.1667C5 31.7617 8.73833 35.5 13.3333 35.5H26.6667C31.2617 35.5 35 31.7617 35 27.1667V13.8333C35 9.23833 31.2617 5.5 26.6667 5.5H13.3333ZM13.3333 8.83333H26.6667C29.4233 8.83333 31.6667 11.0767 31.6667 13.8333V27.1667C31.6667 29.9233 29.4233 32.1667 26.6667 32.1667H13.3333C10.5767 32.1667 8.33333 29.9233 8.33333 27.1667V13.8333C8.33333 11.0767 10.5767 8.83333 13.3333 8.83333ZM28.3333 10.5C27.8913 10.5 27.4674 10.6756 27.1548 10.9882C26.8423 11.3007 26.6667 11.7246 26.6667 12.1667C26.6667 12.6087 26.8423 13.0326 27.1548 13.3452C27.4674 13.6577 27.8913 13.8333 28.3333 13.8333C28.7754 13.8333 29.1993 13.6577 29.5118 13.3452C29.8244 13.0326 30 12.6087 30 12.1667C30 11.7246 29.8244 11.3007 29.5118 10.9882C29.1993 10.6756 28.7754 10.5 28.3333 10.5ZM20 12.1667C15.405 12.1667 11.6667 15.905 11.6667 20.5C11.6667 25.095 15.405 28.8333 20 28.8333C24.595 28.8333 28.3333 25.095 28.3333 20.5C28.3333 15.905 24.595 12.1667 20 12.1667ZM20 15.5C22.7567 15.5 25 17.7433 25 20.5C25 23.2567 22.7567 25.5 20 25.5C17.2433 25.5 15 23.2567 15 20.5C15 17.7433 17.2433 15.5 20 15.5Z" fill="#D9DBDC"/>
</svg>
