<svg width="34" height="34" viewBox="0 0 34 34" fill="none" xmlns="http://www.w3.org/2000/svg">
<path d="M12.1855 5.3125C8.41284 5.3125 5.3125 8.40869 5.3125 12.1855V21.8145C5.3125 25.5872 8.40869 28.6875 12.1855 28.6875H21.8145C25.5872 28.6875 28.6875 25.5913 28.6875 21.8145V12.1855C28.6875 8.41284 25.5913 5.3125 21.8145 5.3125H12.1855ZM12.1855 7.4375H21.8145C24.4417 7.4375 26.5625 9.55835 26.5625 12.1855V21.8145C26.5625 24.4417 24.4417 26.5625 21.8145 26.5625H12.1855C9.55835 26.5625 7.4375 24.4417 7.4375 21.8145V12.1855C7.4375 9.55835 9.55835 7.4375 12.1855 7.4375ZM23.2754 9.76172C22.74 9.76172 22.3125 10.1892 22.3125 10.7246C22.3125 11.26 22.74 11.6875 23.2754 11.6875C23.8108 11.6875 24.2383 11.26 24.2383 10.7246C24.2383 10.1892 23.8108 9.76172 23.2754 9.76172ZM17 10.625C13.4929 10.625 10.625 13.4929 10.625 17C10.625 20.5071 13.4929 23.375 17 23.375C20.5071 23.375 23.375 20.5071 23.375 17C23.375 13.4929 20.5071 10.625 17 10.625ZM17 12.75C19.3616 12.75 21.25 14.6384 21.25 17C21.25 19.3616 19.3616 21.25 17 21.25C14.6384 21.25 12.75 19.3616 12.75 17C12.75 14.6384 14.6384 12.75 17 12.75Z" fill="#E1306C"/>
</svg>
