<svg width="34" height="34" viewBox="0 0 34 34" fill="none" xmlns="http://www.w3.org/2000/svg">
<path d="M26.8179 5.3617C26.4085 5.3795 26.0328 5.49724 25.7028 5.62732C25.3979 5.7474 24.303 6.20758 22.5596 6.93885C20.8161 7.67011 18.5059 8.63966 16.0435 9.67534C11.1185 11.7467 5.58417 14.0767 2.74837 15.2701C2.65099 15.3106 2.25549 15.4317 1.81868 15.7653C1.38086 16.0997 0.894531 16.8255 0.894531 17.6192C0.894531 18.2594 1.21415 18.9115 1.6001 19.2849C1.98604 19.6582 2.37719 19.8328 2.7041 19.9628V19.96C3.80914 20.4003 7.10915 21.7207 7.89486 22.0352C8.17356 22.8704 9.37 26.4458 9.65462 27.3449H9.65186C9.85304 27.9813 10.0491 28.396 10.3215 28.7422C10.4576 28.9153 10.6201 29.0722 10.8195 29.196C10.896 29.2435 10.9807 29.2804 11.0658 29.315C11.0776 29.32 11.0898 29.3213 11.1017 29.326L11.0685 29.3177C11.0932 29.3277 11.1153 29.3423 11.1405 29.351C11.1814 29.3651 11.2098 29.3646 11.265 29.3759C11.4591 29.4356 11.6528 29.4755 11.8322 29.4755C12.6023 29.4755 13.0745 29.0577 13.0745 29.0577L13.105 29.0355L16.4308 26.2216L20.5037 29.9901C20.5781 30.0952 21.1609 30.8838 22.5098 30.8838C23.3146 30.8838 23.951 30.4854 24.3581 30.0676C24.7652 29.6497 25.0188 29.2222 25.1328 28.6426L25.1356 28.6399C25.2265 28.1721 29.1255 8.59347 29.1255 8.59347L29.1172 8.62667C29.2385 8.08501 29.2744 7.5612 29.131 7.02739C28.9877 6.49358 28.6008 5.97263 28.1349 5.69926C27.6691 5.42589 27.2272 5.34389 26.8179 5.3617ZM26.259 8.46342C26.1049 9.23696 22.6122 26.7838 22.3963 27.8845L16.5138 22.4419L12.5378 25.8038L13.639 21.4984C13.639 21.4984 21.2359 13.8085 21.6935 13.3609C22.0619 13.0025 22.139 12.8768 22.139 12.7522C22.139 12.5864 22.0537 12.4672 21.8568 12.4672C21.6797 12.4672 21.4392 12.6369 21.3117 12.7162C19.6915 13.7263 12.7908 17.6588 9.3973 19.5892C9.19308 19.5073 6.12698 18.2761 4.47494 17.6164C7.41348 16.3797 12.4506 14.2604 17.1419 12.2873C19.604 11.2518 21.9135 10.2814 23.6553 9.55082C25.1256 8.93414 25.8925 8.61483 26.259 8.46342ZM22.3548 28.0865H22.3576C22.3575 28.0868 22.355 28.0943 22.3548 28.0948C22.3566 28.0856 22.3535 28.0936 22.3548 28.0865Z" fill="#229ED9"/>
</svg>
