<svg width="34" height="34" viewBox="0 0 34 34" fill="none" xmlns="http://www.w3.org/2000/svg">
<path d="M17.0192 2.83594C9.21904 2.83594 2.86921 9.1803 2.86637 16.9805C2.86496 19.4738 3.51802 21.9079 4.75618 24.0527L2.83594 31.1693L10.2485 29.4178C12.3155 30.5455 14.6422 31.1374 17.0109 31.1388H17.0164C24.8152 31.1388 31.1623 24.7931 31.1665 16.9943C31.1693 13.2132 29.699 9.65823 27.0272 6.98356C24.3553 4.31031 20.8045 2.83735 17.0192 2.83594ZM17.0164 5.66927C20.0424 5.67069 22.8862 6.85048 25.0239 8.98682C27.1617 11.126 28.336 13.9684 28.3332 16.9915C28.3303 23.2305 23.2555 28.3055 17.0137 28.3055C15.1253 28.3041 13.2547 27.8299 11.6071 26.9303L10.6525 26.4102L9.59831 26.6592L6.80924 27.3177L7.48991 24.7887L7.79704 23.6543L7.21045 22.6361C6.22162 20.9247 5.69829 18.9681 5.69971 16.9805C5.70254 10.7443 10.7789 5.66927 17.0164 5.66927ZM12.0111 10.4505C11.7745 10.4505 11.392 10.5391 11.0675 10.8932C10.7431 11.246 9.82796 12.1003 9.82796 13.84C9.82796 15.5797 11.0952 17.2613 11.2723 17.4979C11.448 17.7331 13.7184 21.4159 17.3125 22.8325C20.2988 24.0098 20.9054 23.7774 21.5542 23.7179C22.203 23.6599 23.6474 22.8643 23.9421 22.0384C24.2367 21.2125 24.2374 20.502 24.1496 20.3561C24.0617 20.2088 23.8258 20.1209 23.4717 19.9438C23.1189 19.7668 21.3806 18.9132 21.0562 18.7956C20.7317 18.678 20.4944 18.6185 20.2593 18.9727C20.0241 19.3268 19.3483 20.121 19.1414 20.3561C18.9346 20.5927 18.7292 20.6245 18.375 20.4474C18.0208 20.2689 16.8821 19.8946 15.5306 18.6904C14.4794 17.754 13.7701 16.5986 13.5633 16.2445C13.3579 15.8917 13.5439 15.698 13.721 15.5223C13.8797 15.3636 14.0724 15.1093 14.2495 14.9025C14.4252 14.6957 14.4861 14.5483 14.6037 14.3132C14.7213 14.078 14.6611 13.8704 14.5732 13.6934C14.4854 13.5163 13.7976 11.7701 13.4831 11.0703C13.2182 10.4824 12.9384 10.4687 12.6862 10.4588C12.4808 10.4503 12.2462 10.4505 12.0111 10.4505Z" fill="#25D366"/>
</svg>
