<svg width="40" height="40" viewBox="0 0 40 40" fill="none" xmlns="http://www.w3.org/2000/svg">
<g clip-path="url(#clip0_3767_38626)">
<path d="M0 20C0 8.9543 8.9543 0 20 0C31.0457 0 40 8.9543 40 20C40 31.0457 31.0457 40 20 40C8.9543 40 0 31.0457 0 20Z" fill="#0C5EFF"/>
<path d="M19.9998 6.66602L20.6077 7.90602L21.9653 8.1038L20.9832 9.06823L21.2153 10.4316L19.9998 9.78823L18.7853 10.4316L19.0177 9.06823L18.0353 8.1038L19.3932 7.90602L19.9998 6.66602ZM14.1621 8.4238L14.7698 9.6638L16.1276 9.86268L15.1454 10.8271L15.3776 12.1905L14.1632 11.5471L12.9487 12.1905L13.1798 10.8271L12.1976 9.86268L13.5565 9.6638L14.1621 8.4238ZM10.0143 12.276L10.6221 13.516L11.981 13.7138L10.9987 14.6782L11.2298 16.0416L10.0154 15.3982L8.80095 16.0416L9.03317 14.6782L8.05095 13.7138L9.40872 13.516L10.0143 12.276ZM25.8377 8.4238L25.2298 9.6638L23.872 9.86268L24.8543 10.8271L24.622 12.1905L25.8365 11.5471L27.051 12.1905L26.8198 10.8271L27.802 9.86268L26.4432 9.6638L25.8377 8.4238ZM14.1621 27.1605L14.7698 28.4005L16.1276 28.5993L15.1454 29.5639L15.3776 30.9272L14.1632 30.2838L12.9487 30.9272L13.1798 29.5639L12.1976 28.5993L13.5565 28.4005L14.1621 27.1605ZM25.8377 27.1605L25.2298 28.4005L23.872 28.5993L24.8543 29.5639L24.622 30.9272L25.8365 30.2838L27.051 30.9272L26.8198 29.5639L27.802 28.5993L26.4432 28.4005L25.8377 27.1605ZM29.9853 12.276L29.3777 13.516L28.0187 13.7138L29.001 14.6782L28.7698 16.0416L29.9843 15.3982L31.1987 16.0416L30.9665 14.6782L31.9487 13.7138L30.591 13.516L29.9853 12.276ZM10.0143 23.2527L10.6221 24.4927L11.981 24.6915L10.9987 25.656L11.2298 27.0193L10.0154 26.376L8.80095 27.0193L9.03317 25.656L8.05095 24.6915L9.40872 24.4927L10.0143 23.2527ZM29.9853 23.2527L29.3777 24.4927L28.0187 24.6915L29.001 25.656L28.7698 27.0193L29.9843 26.376L31.1987 27.0193L30.9665 25.656L31.9487 24.6915L30.591 24.4927L29.9853 23.2527ZM31.3677 18.116L31.9753 19.356L33.3332 19.5548L32.351 20.5193L32.5832 21.8827L31.3687 21.2393L30.1543 21.8827L30.3865 20.5193L29.401 19.5548L30.7598 19.356L31.3677 18.116ZM8.63205 18.116L9.23984 19.356L10.5987 19.5548L9.61539 20.5193L9.84762 21.8827L8.63317 21.2393L7.41872 21.8827L7.65095 20.5193L6.6665 19.5548L8.02429 19.356L8.63205 18.116ZM19.9998 29.566L20.6077 30.806L21.9653 31.0048L20.9832 31.9693L21.2143 33.3327L19.9998 32.6893L18.7853 33.3327L19.0177 31.9693L18.0353 31.0048L19.3932 30.806L19.9998 29.566Z" fill="#FFE500"/>
</g>
<defs>
<clipPath id="clip0_3767_38626">
<rect width="40" height="40" fill="white"/>
</clipPath>
</defs>
</svg>
