<svg width="23" height="23" viewBox="0 0 23 23" fill="none" xmlns="http://www.w3.org/2000/svg">
<path d="M9.82405 16.5523L9.81109 16.5437C9.81103 16.5436 9.81096 16.5436 9.8109 16.5435C8.62492 15.7556 7.31035 14.8782 6.28349 13.7702C5.27025 12.6768 4.58203 11.4058 4.58203 9.83037C4.58203 8.00029 6.08531 6.5 7.94328 6.5C8.95239 6.5 9.89547 6.946 10.5302 7.70582L11.1058 8.3949L11.6814 7.70582C12.3161 6.946 13.2592 6.5 14.2683 6.5C16.1262 6.5 17.6295 8.00029 17.6295 9.83037C17.6295 11.4058 16.9413 12.6768 15.9281 13.7702C14.9012 14.8782 13.5866 15.7556 12.4007 16.5435C12.4006 16.5436 12.4005 16.5436 12.4005 16.5437L12.3875 16.5523C11.9225 16.861 11.4785 17.1558 11.1058 17.4378C10.7331 17.1558 10.289 16.861 9.82405 16.5523Z" stroke="#5D606D" stroke-width="1.5"/>
</svg>
