<svg width="16" height="16" viewBox="0 0 16 16" fill="none" xmlns="http://www.w3.org/2000/svg">
<path d="M3.61538 11.4087L3.61515 11.4089L3.61831 11.4121L3.62076 11.4149L3.62094 11.4147L3.62097 11.4147L3.62079 11.4149L3.62087 11.415L3.6212 11.4154L3.62252 11.4169L3.62773 11.4228L3.6481 11.446L3.72615 11.5348C3.79379 11.6117 3.89137 11.7224 4.01113 11.8578C4.25066 12.1286 4.57899 12.4983 4.93418 12.8935C5.64336 13.6827 6.46334 14.5783 6.89581 14.991L6.89584 14.991C7.50918 15.5758 8.48757 15.5758 9.10091 14.991L9.10092 14.991C9.59339 14.5213 10.4136 13.6255 11.1083 12.85C11.4562 12.4616 11.7735 12.1025 12.0038 11.8404C12.119 11.7094 12.2124 11.6026 12.277 11.5286L12.3515 11.4432L12.3709 11.4209L12.3759 11.4152L12.3771 11.4137L12.3775 11.4134L12.3775 11.4133L12.3775 11.4132L12.3775 11.4132L12.3782 11.4138L12.3823 11.4076C13.2422 10.4017 13.7654 9.09328 13.7654 7.66667C13.7654 4.48786 11.1775 1.9 7.9987 1.9C4.81989 1.9 2.23203 4.48786 2.23203 7.66667C2.23203 9.0938 2.75566 10.4026 3.61538 11.4087ZM3.65886 11.3815L3.6591 11.3813L3.69596 11.349L3.65886 11.3815ZM12.3269 11.3692L12.327 11.3694L12.3021 11.3477L12.3269 11.3692ZM4.52679 10.6278L4.52693 10.6277L4.52468 10.6254C3.84357 9.82671 3.43203 8.79845 3.43203 7.66667C3.43203 5.13881 5.47084 3.1 7.9987 3.1C10.5266 3.1 12.5654 5.13881 12.5654 7.66667C12.5654 8.79996 12.1526 9.82946 11.4693 10.6286C11.4348 10.668 9.11703 13.3177 8.27279 14.1229C8.11347 14.2748 7.88328 14.2748 7.72395 14.1229C7.01515 13.4466 4.54043 10.6433 4.52682 10.6279L4.52679 10.6278ZM7.9987 5.56667C7.34652 5.56667 6.78678 5.83024 6.42526 6.23695C6.0654 6.64179 5.8987 7.15918 5.8987 7.66667C5.8987 8.17416 6.0654 8.69154 6.42526 9.09639C6.78678 9.50309 7.34652 9.76667 7.9987 9.76667C8.65087 9.76667 9.21062 9.50309 9.57214 9.09639C9.932 8.69154 10.0987 8.17416 10.0987 7.66667C10.0987 7.15918 9.932 6.64179 9.57214 6.23695C9.21062 5.83024 8.65087 5.56667 7.9987 5.56667ZM7.9987 6.76667C8.34665 6.76667 8.53685 6.87818 8.67526 7.03389C8.81527 7.1914 8.8987 7.42394 8.8987 7.66667C8.8987 7.90939 8.81527 8.14194 8.67526 8.29945C8.53685 8.45516 8.34665 8.56667 7.9987 8.56667C7.65075 8.56667 7.46054 8.45516 7.32214 8.29945C7.18213 8.14194 7.0987 7.90939 7.0987 7.66667C7.0987 7.42394 7.18213 7.1914 7.32214 7.03389C7.46054 6.87818 7.65075 6.76667 7.9987 6.76667Z" fill="white" stroke="white" stroke-width="0.2"/>
</svg>
